<?xml version="1.0" encoding="utf-8"?>
<!-- Generator: Adobe Illustrator 28.1.0, SVG Export Plug-In . SVG Version: 6.00 Build 0)  -->
<svg version="1.1" id="Layer_1" xmlns="http://www.w3.org/2000/svg" xmlns:xlink="http://www.w3.org/1999/xlink" x="0px" y="0px"
	 viewBox="0 0 440 108" style="enable-background:new 0 0 440 108;" xml:space="preserve">
<path d="M225.7,0c-31.5,0-54.4,22.6-54.4,54c0,31.6,22.9,54,54.4,54c30.9,0,54.4-22.4,54.4-54C280.1,22.6,256.6,0,225.7,0z
	 M225.7,89.8c-19.5,0-33.9-14.2-33.9-35.8c0-21,14.5-35.8,33.9-35.8S259.6,33,259.6,54C259.6,75.6,245.2,89.8,225.7,89.8z"/>
<path d="M370.6,19.6h13.6v58c0,19.4,12.4,27.8,28.1,27.8h22.5V87.6h-19.9c-6.2,0-10.6-3-10.6-11v-57H440v-17h-69.4V19.6z"/>
<path d="M317.2,30.4v46.2c0,8-4.4,11-10.6,11h-23.3v17.8h25.9c15.7,0,28.1-8.4,28.1-27.8v-47c0-8,4.4-11,10.6-11h9.9v-17h-12.5
	C329.6,2.6,317.2,11,317.2,30.4z"/>
<path d="M126.1,2.6H95.1c-7.7,0-13.8,2.1-18.1,6.5C72.9,4.7,66.7,2.6,59,2.6H0v102.8h20.1V19.6h36.3c6.2,0,10.6,3,10.6,11v74.8h20.1
	V30.6c0-8,4.4-11,10.6-11h25.7c6.2,0,10.6,3,10.6,11v74.8h20.1v-75C154.2,11,141.7,2.6,126.1,2.6z"/>
</svg>
